<?xml version="1.0" encoding="UTF-8"?>
<!DOCTYPE svg PUBLIC "-//W3C//DTD SVG 1.1//EN" "http://www.w3.org/Graphics/SVG/1.1/DTD/svg11.dtd">
<!-- Creator: CorelDRAW 2020 (64 Bit) -->
<svg xmlns="http://www.w3.org/2000/svg" xml:space="preserve" width="40.8398mm" height="47.767mm" version="1.1" style="shape-rendering:geometricPrecision; text-rendering:geometricPrecision; image-rendering:optimizeQuality; fill-rule:evenodd; clip-rule:evenodd"
viewBox="0 0 4026.29 4709.22"
 xmlns:xlink="http://www.w3.org/1999/xlink"
 xmlns:xodm="http://www.corel.com/coreldraw/odm/2003">
 <defs>
  <style type="text/css">
   <![CDATA[
    .fil0 {fill:black}
    .fil1 {fill:#535454}
    .fil2 {fill:#8A8A8A}
   ]]>
  </style>
 </defs>
 <g id="Camada_x0020_1">
  <metadata id="CorelCorpID_0Corel-Layer"/>
  <g id="_2736558854624">
   <path class="fil0" d="M1919.52 4605.61c-43.48,6.19 -384.64,2.17 -429.11,-5.03 -84.37,-13.63 -35.72,-150.36 15.49,-216.96l43.69 -48.84c8.09,-11.22 1.26,1.34 8.37,-13.98l2.19 -1.63c40.15,-12.75 55.7,-41.14 114.28,-48.17 63.45,-7.61 92.8,21.25 127.41,-22.21 7.19,-33.98 2.12,-42.8 -17.72,-59.58 -18.02,-15.24 -27.68,-24.14 -41.81,-36.47 -450.3,-393.19 -168.52,-938.56 387.98,-943.51 328.45,-2.92 424.31,145.16 514.52,125.07 51.92,-84.01 -88.03,-121.01 -156.76,-150.1 -263.56,-111.58 -606.32,-76.35 -819.04,79.21 -236.51,172.96 -307.05,447.12 -176.57,720.3 31.71,66.39 105.19,163.81 143.11,199.61 -19.56,12.11 -77.49,23 -127.19,65.15 -1.44,1.22 -5.29,4.99 -6.7,6.26 -0.99,0.9 -2.36,2.27 -3.35,3.16l-27.85 24.91c-71.49,73.03 -149.55,214.69 -100.84,327.3 43.26,100.06 154.99,82.64 276.42,84.02 100.72,1.15 263,15.34 354.53,5.34l110.22 0.68c19.98,-13.7 72.15,-65.82 84.41,-84.28 -33.71,5.38 -261.69,4.66 -275.67,-10.26zm490.03 93.51c194.53,18.08 593.64,-59.39 760.24,-117.84 411.64,-144.43 800.68,-469.18 850.68,-916.64 26.01,-232.74 -36.16,-426.14 -168.52,-600.39l-41.54 -50.28c-10.02,-8.5 0.26,-1.99 -11.76,-8.3l-56.88 57.68c19.94,-21.36 47.31,-41.28 58.5,-67.6l-131.92 -121.52c-19.34,-16.65 -33.85,-21.76 -53.06,-38.44 -43.43,-37.72 -64.47,-45.79 -98.57,-71.57 -87.1,-65.82 -221.72,-140.99 -315.22,-208.33 -55.06,-39.66 -151.9,-106.2 -196.45,-150.64 -125.47,-125.18 -232.19,-265.54 -199.07,-478.94 59.78,-385.12 457.33,-410.08 602.71,-225.68 52.37,66.42 83.58,167.85 44.34,264.1 -30.79,75.5 -103.5,128.08 -178.19,168.32 -27.22,14.67 -110.91,42.23 -124.36,52.89 -36.94,29.26 -14.07,94.9 54.63,74.27 156.28,-46.93 332.82,-172.37 353.23,-341.83 12.89,-107.05 -25.64,-212.5 -76.4,-271.42 -47.68,-55.35 -145.48,-132.29 -221.02,-131.62 -37.96,8.32 -26.84,30.36 -76.35,28.4 -18.86,-0.75 -31,-5.94 -42.65,-14.81 -13.62,-10.36 -17.55,-16.7 -25.34,-29.96 -60.1,4.22 -108.99,22.11 -155.75,45.36 -31.22,15.53 -91.55,62.28 -115.02,87.76 -67.93,73.77 -109.63,172.72 -129.39,276.69 -51.58,271.36 137.34,504.43 280.69,609.26 67,49 88.67,72.45 177.71,129.9 178.88,115.43 417.26,257.3 559.42,416.11 194.18,216.92 258.56,504.44 143.93,792 -147.43,369.87 -549.18,611.77 -930.11,693.34 -238.01,50.96 -490.96,64.38 -745.29,64.76l-79.6 87.04 286.37 -2.06z"/>
   <path class="fil0" d="M878.17 3285.5c20.59,0.46 67.75,-10.42 84.44,-17.55 3.95,-94.2 -81.17,-274.16 -51.04,-564.12 19.87,-191.22 84.2,-335.45 124.41,-512.14 109.22,-479.91 -267.01,-405.05 -489.72,-415.24 -151.45,-6.93 -216.6,-55.08 -313.4,-166.46 -44.58,-51.29 -85.61,-128.07 -98.92,-136.91 -21.9,-14.51 -39.07,-9.42 -42.07,-39.51 -6.74,-67.99 70.44,-24.37 100.43,-52.45 84.27,-78.89 41.02,-295.21 147.28,-487.64 39.53,-71.59 84.93,-130.94 138.2,-176.06 120.29,-101.9 290.31,-106.99 338.32,-296.98 28.59,-113.18 9.39,-185.31 -7.81,-291.15 114.04,36.39 338.43,210.85 424.66,290.79 62.84,58.27 108.76,118.06 166.47,186.83 0.86,1.02 2.19,2.42 3.04,3.46 38.59,47.62 110.19,165.66 135.13,218.29 227.11,479.2 -36.28,704.41 282.25,1144.94 110.27,152.51 223.05,233.91 275.2,301.11 30.83,39.73 242.89,229.25 297.3,278.53l496.86 491.64c30.64,33.41 53.04,62.97 81.81,95.11 43.72,48.83 119.17,155.33 152.34,207.47 11.27,17.7 60.32,101.6 68.95,109.29 15.91,18.08 8.72,-17.51 12,12.3 12.93,-23.2 33.77,-39.6 72.66,-40.15 -21.32,-53.67 -77.92,-132.58 -108.86,-178.16 -44.92,-66.16 -139.64,-191.55 -191.48,-247.32 -23.19,-24.94 -48.89,-49.3 -69.22,-74.78 -58.31,-73.09 -149.98,-155.19 -217.02,-221.57 -25.36,-25.09 -49.85,-43.41 -76.63,-67.62 -26.56,-24.01 -45.28,-47.83 -73.23,-70.77 -67.79,-55.61 -354.42,-341.4 -385.49,-354.7l-205.61 -225.85c-136.05,-150.48 -194.85,-290.48 -213.98,-524.92 -7.77,-95.27 4.55,-186.84 -5.47,-283.4 -19.69,-189.56 -63.4,-288.01 -141.28,-447.81l-99.09 -156c-11.54,-14.99 -5.24,-9.98 -20.3,-21.33l-1.74 -3.04c-12.68,-28.26 -73.45,-95.32 -92.22,-117.1 -31.14,-36.11 -65.88,-69.37 -101.53,-100.94 -34.11,-30.21 -73.1,-60.5 -110.88,-92.14 -95.11,-79.65 -263.35,-177.59 -386.41,-228.97 -73.5,-30.68 -113.43,-4.31 -80.56,74.01 61.78,147.14 84.97,369.71 -87.89,446.86 -106.78,47.64 -184.98,101.51 -244.18,168.35 -204.74,231.17 -157.27,391.12 -224.51,595.06 -180.45,17.15 -154.86,187.42 -93.88,232.21 36.49,26.8 23.45,2.93 49.51,48.73 42.96,75.51 185.37,220.74 263,253.94 273.43,116.95 733.45,-137.35 575.71,395.42 -32.5,109.77 -62.36,210.28 -89.22,323.28 -53.22,223.83 -25.08,525.37 33.69,735.16z"/>
   <path class="fil0" d="M973.82 3803.08c-11.49,83.82 8.92,143.01 -18.43,239.5 -71.22,251.27 -262.46,13.88 -457.99,314.47 -74.23,114.12 -95.9,307.99 65.47,333.06 49.16,7.63 484.95,8.05 505.06,-5 25.7,-16.69 26.13,-64.04 -2.64,-77.93 -24.19,-11.67 -339.75,-4.91 -381.53,-4.9 -92.73,0.01 -176.1,18.34 -150.05,-103.9 13.78,-64.63 65.97,-134.75 98.46,-163.71 128.48,-114.53 262.17,-19.38 359.09,-157.94 77.79,-111.22 86.02,-274.06 64.68,-433.45 -5.55,-8.32 -0.54,6.94 -8.5,-16.88 -13.4,-40.15 -1.53,10.07 0.3,-11.61 -12.71,13.57 -22.48,22.63 -39.88,40.25 -18.74,18.99 -24.65,19.03 -34.05,48.04z"/>
   <path class="fil0" d="M3274.79 3637.91c16.93,79.72 45.16,142.3 58.55,232.47 10.88,73.37 -2.05,221.52 94.92,159.77 25.57,-80 -32.82,-346.87 -69.15,-416.36 -11.91,-12.49 -3.73,13.15 -13.08,-13.79l-43.83 45.76c-20.52,-10.7 -1.63,-5.06 -27.41,-7.85z"/>
   <path class="fil0" d="M896.14 3342.86c-1.87,35.01 15.57,107.49 24.62,144.78 12.51,51.52 15.64,89.89 26.24,139.31l13.77 29.16c15.13,-20.79 47.45,-58.35 71.92,-63.51l-53.38 -281.36c-10.04,0 -7.53,2.04 -4.52,-8.23 -32.93,4.52 -56.18,15.98 -83.77,15.36l5.11 24.49z"/>
   <path class="fil1" d="M947 3626.95l26.82 176.14c9.41,-29.01 15.31,-29.05 34.05,-48.04 17.4,-17.63 27.17,-26.69 39.88,-40.25 -1.82,21.68 -13.69,-28.54 -0.3,11.61 7.96,23.82 2.95,8.56 8.5,16.88 -2.01,-22.87 2.28,-15.88 -8.2,-28.49 2.03,-40.94 -7.44,-82.24 -15.05,-122.19 -24.47,5.16 -56.79,42.72 -71.92,63.51l-13.77 -29.16z"/>
   <path class="fil1" d="M3192.29 3456.75c7.17,19.52 9.64,34.97 27.32,51.01 3.94,-15.41 25.95,-57.53 57.63,-21.96 -3.33,16.37 -5.97,16.09 -15.63,27.93 -15.01,18.41 -7.4,17.24 -31.01,22.56 3.65,-13.28 6.61,-10.37 -6.65,-10.37l6.65 10.37 12.07 25.73c15.24,8.65 -0.94,2.86 18.71,4.68 14.86,-21.67 25.48,-34.57 54.96,-43.34 4.79,5.11 4.72,4.74 9.7,12.4 -5.2,15.88 -8.82,12.56 7.12,12.56l-7.12 -12.56c-4.35,-27.53 -33.74,-83.41 -49.11,-106.87 -38.89,0.55 -59.72,16.96 -72.66,40.15 -3.27,-29.81 3.91,5.78 -12,-12.3zm56.99 121.39l-6.67 -11.26c-0.09,13.35 -4.12,11.26 6.67,11.26z"/>
   <path class="fil2" d="M2000.56 4699.47c28.39,12.75 381.04,13.35 408.99,-0.35l-286.37 2.06 79.6 -87.04 -283.26 -8.53c13.98,14.93 241.96,15.65 275.67,10.26 -12.26,18.47 -64.43,70.58 -84.41,84.28l-110.22 -0.68z"/>
   <path class="fil0" d="M3242.68 3562.02l-0.07 4.86 6.67 11.26 15.19 35.72 10.44 10.92c0.97,-1.74 3.95,4.06 4.96,6.63 11.86,-37.68 42.01,-33.67 53.83,-76.79l-0.53 -6.29c-15.94,0 -12.31,3.32 -7.12,-12.56 -4.98,-7.66 -4.91,-7.3 -9.7,-12.4 -29.48,8.76 -40.11,21.67 -54.96,43.34 -19.65,-1.82 -3.47,3.96 -18.71,-4.68z"/>
   <path class="fil1" d="M3260.92 1515.33l-29.19 -11.37c-10.76,-2.34 -23.03,-5.35 -34.14,-7.07 -26.88,-4.13 -53.67,0.13 -81,2.07 7.79,13.26 11.71,19.6 25.34,29.96 11.65,8.86 23.79,14.06 42.65,14.81 49.51,1.96 38.39,-20.08 76.35,-28.4z"/>
   <path class="fil1" d="M878.17 3285.5c3.99,22.35 4.45,43.63 17.97,57.36l-5.11 -24.49c27.58,0.62 50.84,-10.84 83.77,-15.36 -3.02,10.27 -5.52,8.23 4.52,8.23l-4.52 -8.23 -12.2 -35.06c-16.69,7.13 -63.86,18.01 -84.44,17.55z"/>
   <path class="fil1" d="M3264.47 3613.86l10.31 24.06c25.78,2.79 6.89,-2.85 27.41,7.85l43.83 -45.76c9.36,26.94 1.17,1.3 13.08,13.79 -4.99,-21.31 -11.84,-43.18 -25.41,-59.17 -11.82,43.12 -41.97,39.11 -53.83,76.79 -1.01,-2.56 -3.99,-8.37 -4.96,-6.63l-10.44 -10.92z"/>
   <path class="fil0" d="M3219.61 3507.76l4.35 18.16c13.26,0 10.3,-2.91 6.65,10.37 23.6,-5.31 15.99,-4.15 31.01,-22.56 9.65,-11.84 12.29,-11.56 15.63,-27.93 -31.69,-35.57 -53.69,6.55 -57.63,21.96z"/>
  </g>
 </g>
</svg>
